<svg xmlns="http://www.w3.org/2000/svg" viewBox="0 0 172 138.86"><defs><style>.cls-1{fill:#ffffff;}</style></defs><g class="cls-1" id="Слой_2" data-name="Слой 2"><g class="cls-1" id="Слой_25" data-name="Слой 25"><g class="cls-1" id="All_Tasks_копия6_" data-name="All Tasks (копия6)"><rect class="cls-1" x="52" y="1.86" width="120" height="13" rx="3"/><rect class="cls-1" x="52" y="21.86" width="75" height="13" rx="3"/><rect class="cls-1" x="52" y="53.86" width="120" height="13" rx="3"/><rect class="cls-1" x="52" y="73.86" width="75" height="13" rx="3"/><rect class="cls-1" x="52" y="105.86" width="120" height="13" rx="3"/><rect class="cls-1" x="52" y="125.86" width="75" height="13" rx="3"/><circle class="cls-1" cx="23.16" cy="69.86" r="16"/><circle class="cls-1" cx="23.16" cy="122.86" r="16"/><path class="cls-1" d="M.81,17.75,16,32.91a2.78,2.78,0,0,0,3.91,0L45.19,7.58a2.75,2.75,0,0,0,0-3.9L42.31.81a2.75,2.75,0,0,0-3.9,0L19.83,19.39a2.76,2.76,0,0,1-3.91,0L7.54,11a2.77,2.77,0,0,0-3.9,0L.81,13.85A2.75,2.75,0,0,0,.81,17.75Z"/></g></g></g></svg>