<svg width="23" height="23" viewBox="0 0 23 23" fill="none" xmlns="http://www.w3.org/2000/svg">
<g clip-path="url(#clip0)">
<path d="M0.40317 12.1102L7.98124 22.4492C8.2403 22.8021 8.5914 23.0003 8.95747 23.0003C9.32353 23.0003 9.67463 22.8021 9.93369 22.4492L22.5956 5.17422C22.8541 4.82118 22.9994 4.34255 22.9994 3.8435C22.9994 3.34445 22.8541 2.86581 22.5956 2.51278L21.1577 0.550976C20.8989 0.198253 20.5481 0.00012207 20.1823 0.00012207C19.8165 0.00012207 19.4657 0.198253 19.2069 0.550976L9.91324 13.2306C9.65419 13.5835 9.30309 13.7817 8.93702 13.7817C8.57096 13.7817 8.21985 13.5835 7.9608 13.2306L3.77139 7.5149C3.64349 7.33969 3.49149 7.20067 3.32411 7.10581C3.15673 7.01094 2.97727 6.96211 2.79602 6.96211C2.61478 6.96211 2.43531 7.01094 2.26793 7.10581C2.10055 7.20067 1.94855 7.33969 1.82065 7.5149L0.40317 9.44648C0.144533 9.79991 -0.000732422 10.2789 -0.000732422 10.7784C-0.000732422 11.2778 0.144533 11.7568 0.40317 12.1102V12.1102Z" fill="#00D957"/>
</g>
<defs>
<clipPath id="clip0">
<rect width="23" height="23" fill="white"/>
</clipPath>
</defs>
</svg>
