<svg width="23" height="16" viewBox="0 0 23 16" fill="none" xmlns="http://www.w3.org/2000/svg">
<g clip-path="url(#clip0)">
<path d="M0.40317 8.42456L7.98124 15.6169C8.2403 15.8623 8.5914 16.0002 8.95747 16.0002C9.32353 16.0002 9.67463 15.8623 9.93369 15.6169L22.5956 3.5995C22.8541 3.3539 22.9994 3.02094 22.9994 2.67378C22.9994 2.32661 22.8541 1.99365 22.5956 1.74805L21.1577 0.383325C20.8989 0.137952 20.5481 0.00012207 20.1823 0.00012207C19.8165 0.00012207 19.4657 0.137952 19.2069 0.383325L9.91324 9.20394C9.65419 9.44941 9.30309 9.58728 8.93702 9.58728C8.57096 9.58728 8.21986 9.44941 7.9608 9.20394L3.77139 5.22779C3.64349 5.10591 3.49149 5.0092 3.32411 4.94321C3.15673 4.87722 2.97727 4.84325 2.79602 4.84325C2.61478 4.84325 2.43531 4.87722 2.26793 4.94321C2.10055 5.0092 1.94855 5.10591 1.82065 5.22779L0.40317 6.5715C0.144533 6.81737 -0.000732422 7.1506 -0.000732422 7.49803C-0.000732422 7.84546 0.144533 8.17869 0.40317 8.42456Z" fill="#00D957"/>
</g>
<defs>
<clipPath id="clip0">
<rect width="23" height="16" fill="white"/>
</clipPath>
</defs>
</svg>
