<svg xmlns="http://www.w3.org/2000/svg" viewBox="0 0 233 233"><defs><style>.cls-1{fill:#ffffff;}</style></defs><g id="Слой_2" data-name="Слой 2"><g id="Вар3_копия_" data-name="Вар3 (копия)"><g id="Циферблат"><path class="cls-1" d="M116.5,233A116.5,116.5,0,1,1,233,116.5,116.63,116.63,0,0,1,116.5,233Zm0-213A96.5,96.5,0,1,0,213,116.5,96.61,96.61,0,0,0,116.5,20Z"/><g id="Цыфры"><rect class="cls-1" x="104.5" y="19.5" width="25" height="25"/><rect class="cls-1" x="104.5" y="188.5" width="25" height="25"/><rect class="cls-1" x="188.5" y="104.5" width="25" height="25"/><rect class="cls-1" x="19.5" y="104.5" width="25" height="25"/></g></g><polygon class="cls-1" points="120.01 148.19 55.84 90.96 69.16 76.04 115.99 117.81 193.13 0.02 209.87 10.98 120.01 148.19"/></g></g></svg>