<svg xmlns="http://www.w3.org/2000/svg" viewBox="0 0 147 147"><defs><style>.cls-1{fill:#fff;}.cls-2{fill:none;stroke:#fff;stroke-miterlimit:10;stroke-width:11px;}</style></defs><g id="Слой_2" data-name="Слой 2"><g id="Слой_25" data-name="Слой 25"><g id="Open_Tasks_копия5_" data-name="Open Tasks (копия5)"><path class="cls-1" d="M117.33,85.07H72.67a3.54,3.54,0,0,1-3.54-3.54V20.47a3.54,3.54,0,0,1,3.54-3.54h1.75A3.53,3.53,0,0,1,78,20.47V72.7a3.55,3.55,0,0,0,3.55,3.54h35.82a3.54,3.54,0,0,1,3.54,3.54v1.75A3.54,3.54,0,0,1,117.33,85.07Z"/><path class="cls-1" d="M117.33,85.7H72.67a4.17,4.17,0,0,1-4.17-4.17V20.47a4.17,4.17,0,0,1,4.17-4.17h1.75a4.18,4.18,0,0,1,4.18,4.17V72.7a2.91,2.91,0,0,0,2.91,2.91h35.82a4.17,4.17,0,0,1,4.17,4.17v1.75A4.17,4.17,0,0,1,117.33,85.7ZM72.67,17.56a2.92,2.92,0,0,0-2.91,2.91V81.53a2.92,2.92,0,0,0,2.91,2.91h44.66a2.92,2.92,0,0,0,2.91-2.91V79.78a2.92,2.92,0,0,0-2.91-2.91H81.51a4.18,4.18,0,0,1-4.18-4.17V20.47a2.91,2.91,0,0,0-2.91-2.91Z"/><circle class="cls-2" cx="73.5" cy="73.5" r="68"/></g></g></g></svg>