<svg xmlns="http://www.w3.org/2000/svg" viewBox="0 0 121 125"><defs><style>.cls-1{fill:#FFFFFF;}</style></defs><g id="Слой_2" data-name="Слой 2"><g id="Слой_25" data-name="Слой 25"><g id="Today_копия5_" data-name="Today (копия5)"><rect class="cls-1" x="25" width="13" height="31" rx="3"/><rect class="cls-1" x="84" width="13" height="31" rx="3"/><path class="cls-1" d="M102,15V35a3,3,0,0,1-3,3H82a3,3,0,0,1-3-3V15a3,3,0,0,0-3-3H46a3,3,0,0,0-3,3V35a3,3,0,0,1-3,3H23a3,3,0,0,1-3-3V15a3,3,0,0,0-3-3H3a3,3,0,0,0-3,3V122a3,3,0,0,0,3,3H118a3,3,0,0,0,3-3V15a3,3,0,0,0-3-3H105A3,3,0,0,0,102,15Zm9.5,102.69H10.5a3,3,0,0,1-3-3V54.31a3,3,0,0,1,3-3h101a3,3,0,0,1,3,3v60.38A3,3,0,0,1,111.5,117.69Z"/><path class="cls-1" d="M28.68,85.8l22.07,22.08a4,4,0,0,0,5.69,0L93.32,71a4,4,0,0,0,0-5.68l-4.18-4.19a4,4,0,0,0-5.69,0L56.38,88.19a4,4,0,0,1-5.69,0L38.49,76a4,4,0,0,0-5.69,0l-4.12,4.12A4,4,0,0,0,28.68,85.8Z"/></g></g></g></svg>