<svg width="15" height="19" viewBox="0 0 15 19" fill="none" xmlns="http://www.w3.org/2000/svg">
<path d="M13.3129 2.32566H10.1971V1.74424C10.1971 0.782475 9.4347 0 8.4976 0H6.23157C5.29446 0 4.53205 0.782475 4.53205 1.74424V2.32566H1.41627C0.635337 2.32566 0 2.97771 0 3.77919V5.81414C0 6.13523 0.253653 6.39556 0.566506 6.39556H0.876102L1.36553 16.944C1.40876 17.8756 2.15442 18.6053 3.0631 18.6053H11.6661C12.5748 18.6053 13.3204 17.8756 13.3636 16.944L13.8531 6.39556H14.1627C14.4755 6.39556 14.7292 6.13523 14.7292 5.81414V3.77919C14.7292 2.97771 14.0938 2.32566 13.3129 2.32566ZM5.66506 1.74424C5.66506 1.42367 5.91921 1.16283 6.23157 1.16283H8.4976C8.80995 1.16283 9.0641 1.42367 9.0641 1.74424V2.32566H5.66506V1.74424ZM1.13301 3.77919C1.13301 3.61891 1.26009 3.48849 1.41627 3.48849H13.3129C13.4691 3.48849 13.5962 3.61891 13.5962 3.77919V5.23273C13.4216 5.23273 1.85648 5.23273 1.13301 5.23273V3.77919ZM12.2319 16.8887C12.2175 17.1992 11.9689 17.4424 11.6661 17.4424H3.0631C2.7602 17.4424 2.51164 17.1992 2.49727 16.8887L2.01039 6.39556H12.7188L12.2319 16.8887Z" fill="white"/>
<path d="M7.36436 16.2796C7.67721 16.2796 7.93086 16.0193 7.93086 15.6982V8.13979C7.93086 7.81871 7.67721 7.55838 7.36436 7.55838C7.0515 7.55838 6.79785 7.81871 6.79785 8.13979V15.6982C6.79785 16.0193 7.05147 16.2796 7.36436 16.2796Z" fill="white"/>
<path d="M10.1969 16.2796C10.5097 16.2796 10.7634 16.0193 10.7634 15.6982V8.13979C10.7634 7.81871 10.5097 7.55838 10.1969 7.55838C9.88402 7.55838 9.63037 7.81871 9.63037 8.13979V15.6982C9.63037 16.0193 9.88399 16.2796 10.1969 16.2796Z" fill="white"/>
<path d="M4.53184 16.2796C4.84469 16.2796 5.09834 16.0193 5.09834 15.6982V8.13979C5.09834 7.81871 4.84469 7.55838 4.53184 7.55838C4.21899 7.55838 3.96533 7.81871 3.96533 8.13979V15.6982C3.96533 16.0193 4.21895 16.2796 4.53184 16.2796Z" fill="white"/>
</svg>
